<svg xmlns="http://www.w3.org/2000/svg" version="1.1" xmlns:xlink="http://www.w3.org/1999/xlink" xmlns:svgjs="http://svgjs.dev/svgjs" width="2000" height="742" viewBox="0 0 2000 742"><g transform="matrix(1,0,0,1,-1.2121212121212466,-0.7275938824324726)"><svg viewBox="0 0 396 147" data-background-color="#ffffff" preserveAspectRatio="xMidYMid meet" height="742" width="2000" xmlns="http://www.w3.org/2000/svg" xmlns:xlink="http://www.w3.org/1999/xlink"><g id="tight-bounds" transform="matrix(1,0,0,1,0.2400000000000091,0.14414595784039363)"><svg viewBox="0 0 395.52 146.7117080843192" height="146.7117080843192" width="395.52"><g><svg viewBox="0 0 397.4975999999999 147.44526662474078" height="146.7117080843192" width="395.52"><g><rect width="397.4975999999999" height="4.516053776261232" x="0" y="81.02943676756404" fill="#786efd" opacity="1" stroke-width="0" stroke="transparent" fill-opacity="1" class="rect-in-0" data-fill-palette-color="secondary" rx="1%" id="in-0" data-palette-color="#786efd"></rect></g><g transform="matrix(1,0,0,1,0.9887999999999693,97.36762084817404)"><svg viewBox="0 0 395.52 50.077645776566754" height="50.077645776566754" width="395.52"><g><svg viewBox="0 0 395.52 50.077645776566754" height="50.077645776566754" width="395.52"><g><svg viewBox="0 0 395.52 50.077645776566754" height="50.077645776566754" width="395.52"><g transform="matrix(1,0,0,1,0,0)"><svg width="395.52" viewBox="1.55 -33.7 275.22999999999996 34.85" height="50.077645776566754" data-palette-color="#786efd"><path d="M12.45-31.95L12.45-17.45 14.15-17.45Q22.15-17.45 22.15-25.1L22.15-25.1Q22.15-28.8 20.6-30.48 19.05-32.15 15.7-32.15L15.7-32.15Q13.55-32.15 12.45-31.95L12.45-31.95ZM9.1-33.5L11.6-33.5 17.2-33.65Q29.1-33.65 29.1-25.1L29.1-25.1Q29.1-21.3 26.4-18.9 23.7-16.5 19.45-16.5L19.45-16.5 18.3-16.5Q24-15.75 26.13-13.05 28.25-10.35 28.25-4.85L28.25-4.85Q28.25-1.45 29.65-0.7L29.65-0.7Q30.15-0.4 31.13-0.4 32.1-0.4 33.8-1.2L33.8-1.2 33.85 0Q31.15 1.15 28.35 1.15L28.35 1.15Q22.75 1.15 21.6-3.05L21.6-3.05Q21.2-4.8 21.2-7.43 21.2-10.05 20.88-11.48 20.55-12.9 19.9-13.8L19.9-13.8Q18.45-16 14.45-16L14.45-16 12.45-16 12.45-1.65 16.25-1.2 16.25 0 2.15 0 2.15-1.2 5.85-1.6 5.85-31.85 1.55-32.45 1.55-33.7Q5.75-33.5 9.1-33.5L9.1-33.5ZM51.4-17.45L51.4-17.45Q51.4-23.55 47.15-23.55L47.15-23.55Q42.7-23.55 41.75-15.75L41.75-15.75 51.3-15.75Q51.4-16.75 51.4-17.45ZM46.7 0.55L46.7 0.55Q41.35 0.55 38.02-2.95 34.7-6.45 34.7-12.2 34.7-17.95 38.17-21.45 41.65-24.95 47-24.95 52.35-24.95 55-22.68 57.65-20.4 57.65-16.35L57.65-16.35Q57.65-15.2 57.45-13.95L57.45-13.95 41.6-13.95 41.6-12.2Q41.6-6.6 43-3.73 44.4-0.85 47.22-0.85 50.05-0.85 52.37-2.02 54.7-3.2 56-5.35L56-5.35Q57.1-5 57.1-4.3L57.1-4.3Q57.1-3.05 54.75-1.4L54.75-1.4Q53.6-0.6 51.47-0.03 49.35 0.55 46.7 0.55ZM70.8-0.7L70.8-0.7Q72.55-0.7 73.7-1.83 74.84-2.95 74.84-5.5L74.84-5.5Q74.84-7.55 73.15-8.6L73.15-8.6Q71.84-9.4 69.82-10.18 67.8-10.95 66.72-11.5 65.64-12.05 64.34-12.95L64.34-12.95Q61.8-14.75 61.8-17.85 61.8-20.95 64.37-22.95 66.95-24.95 71.9-24.95L71.9-24.95Q75-24.95 77.15-23.63 79.3-22.3 79.3-20.3 79.3-18.3 77.59-17.4L77.59-17.4Q76.8-17 76-17L76-17 74.2-17.55Q74.5-19.1 74.5-20.38 74.5-21.65 73.7-22.68 72.9-23.7 71.3-23.7L71.3-23.7Q67.39-23.7 67.39-19L67.39-19Q67.39-16.85 69.05-15.8L69.05-15.8Q70.3-14.95 72.25-14.28 74.2-13.6 75.32-13.1 76.45-12.6 77.75-11.7L77.75-11.7Q80.34-10 80.34-6.68 80.34-3.35 77.59-1.4 74.84 0.55 70.34 0.55L70.34 0.55Q65.34 0.55 62.95-1.1L62.95-1.1Q61.55-2.1 61.55-3.55 61.55-5 62.52-5.9 63.5-6.8 65.25-6.85L65.25-6.85Q65.59-0.7 70.8-0.7ZM92.84 0.55L92.84 0.55Q88.04 0.55 86.74-2.8L86.74-2.8Q86.19-4.25 86.19-6.45L86.19-6.45Q86.19-14.75 86.44-23.1L86.44-23.1 83.04-23.1 83.04-24.4 86.49-24.4 86.54-31.75 92.94-31.75 92.79-24.4 99.79-24.4 99.79-23.1 92.79-23.1 92.69-19.05Q92.54-10.95 92.54-4.2L92.54-4.2Q92.54-2.25 92.97-1.55 93.39-0.85 94.52-0.85 95.64-0.85 97.02-2.43 98.39-4 98.99-6.2L98.99-6.2Q99.99-6.2 99.99-5.5L99.99-5.5Q99.99-5.35 99.94-5.15L99.94-5.15Q99.14-2.55 97.22-1 95.29 0.55 92.84 0.55ZM116.69-7.4L116.69-11.7Q110.89-11.7 109.39-8.65L109.39-8.65Q108.74-7.35 108.74-5.4L108.74-5.4Q108.74-2.05 111.04-1.5L111.04-1.5Q111.39-1.4 111.79-1.4L111.79-1.4Q113.39-1.4 114.99-3.08 116.59-4.75 116.69-7.4L116.69-7.4ZM108.69-16.6L108.69-16.6Q107.59-15.85 106.39-15.85 105.19-15.85 104.34-16.65 103.49-17.45 103.49-19.03 103.49-20.6 104.44-21.85 105.39-23.1 106.89-23.7L106.89-23.7Q109.84-24.95 112.49-24.95L112.49-24.95Q118.39-24.95 120.54-22.88 122.69-20.8 122.69-16.5L122.69-16.5 122.69-1.45 126.89-1.15 126.89-0.05 117.34 0.55 116.89-3.65Q114.54 0.6 108.79 0.6L108.79 0.6Q106.19 0.6 104.32-0.98 102.44-2.55 102.44-5.4L102.44-5.4Q102.49-9.2 106.24-11.13 109.99-13.05 116.69-13.05L116.69-13.05 116.69-17.35Q116.69-20.4 115.84-22.05 114.99-23.7 112.69-23.7 110.39-23.7 109.24-21.8L109.24-21.8Q108.49-20.55 108.49-19.15 108.49-17.75 108.69-16.6ZM136.89-6.95L136.89-6.95Q136.89-4 137.61-2.65 138.34-1.3 140.54-1.3 142.74-1.3 144.89-4.05 147.04-6.8 147.04-8.8L147.04-8.8 147.04-22.8 143.09-23 143.09-24.15 153.44-24.8 153.44-1.6 157.49-1.4 157.49-0.25 147.24 0.35 147.49-4.65 146.99-4.65Q144.09 0.5 138.59 0.5L138.59 0.5Q130.59 0.5 130.59-7.2 130.59-14.9 131.14-22.8L131.14-22.8 127.44-23 127.44-24.15 137.39-24.7Q136.89-13.4 136.89-6.95ZM168.84-18.5Q169.69-21.2 171.96-23.1 174.24-25 176.11-25 177.99-25 178.63-24.08 179.28-23.15 179.28-22.55L179.28-22.55Q179.28-20.5 177.78-19.6L177.78-19.6Q176.78-20.4 174.81-20.4 172.84-20.4 170.88-19.18 168.94-17.95 168.94-16.5L168.94-16.5 168.94-1.45 173.44-1.15 173.44 0 159.49 0 159.49-1.15 162.78-1.4 162.78-22.75 158.74-22.95 158.74-24.1 168.94-24.65 168.63-18.5 168.84-18.5ZM195.58-7.4L195.58-11.7Q189.78-11.7 188.28-8.65L188.28-8.65Q187.63-7.35 187.63-5.4L187.63-5.4Q187.63-2.05 189.93-1.5L189.93-1.5Q190.28-1.4 190.68-1.4L190.68-1.4Q192.28-1.4 193.88-3.08 195.48-4.75 195.58-7.4L195.58-7.4ZM187.58-16.6L187.58-16.6Q186.48-15.85 185.28-15.85 184.08-15.85 183.23-16.65 182.38-17.45 182.38-19.03 182.38-20.6 183.33-21.85 184.28-23.1 185.78-23.7L185.78-23.7Q188.73-24.95 191.38-24.95L191.38-24.95Q197.28-24.95 199.43-22.88 201.58-20.8 201.58-16.5L201.58-16.5 201.58-1.45 205.78-1.15 205.78-0.05 196.23 0.55 195.78-3.65Q193.43 0.6 187.68 0.6L187.68 0.6Q185.08 0.6 183.21-0.98 181.33-2.55 181.33-5.4L181.33-5.4Q181.38-9.2 185.13-11.13 188.88-13.05 195.58-13.05L195.58-13.05 195.58-17.35Q195.58-20.4 194.73-22.05 193.88-23.7 191.58-23.7 189.28-23.7 188.13-21.8L188.13-21.8Q187.38-20.55 187.38-19.15 187.38-17.75 187.58-16.6ZM224.43-1.15L226.83-1.45 227.13-17.3Q227.13-20.25 226.38-21.6 225.63-22.95 223.38-22.95 221.13-22.95 219.01-20.28 216.88-17.6 216.78-15.65L216.78-15.65 216.78-1.45 220.53-1.15 220.53 0 207.13 0 207.13-1.15 210.43-1.45 210.43-22.75 206.33-22.95 206.33-24 216.58-24.6 216.33-19.5 216.83-19.5Q218.18-22 220.48-23.38 222.78-24.75 225.43-24.75L225.43-24.75Q233.43-24.75 233.43-17.05L233.43-17.05Q233.43-11.5 233.08-1.45L233.08-1.45 236.53-1.15 236.53 0 224.43 0 224.43-1.15ZM248.13 0.55L248.13 0.55Q243.33 0.55 242.03-2.8L242.03-2.8Q241.48-4.25 241.48-6.45L241.48-6.45Q241.48-14.75 241.73-23.1L241.73-23.1 238.33-23.1 238.33-24.4 241.78-24.4 241.83-31.75 248.23-31.75 248.08-24.4 255.08-24.4 255.08-23.1 248.08-23.1 247.98-19.05Q247.83-10.95 247.83-4.2L247.83-4.2Q247.83-2.25 248.25-1.55 248.68-0.85 249.8-0.85 250.93-0.85 252.3-2.43 253.68-4 254.28-6.2L254.28-6.2Q255.28-6.2 255.28-5.5L255.28-5.5Q255.28-5.35 255.23-5.15L255.23-5.15Q254.43-2.55 252.5-1 250.58 0.55 248.13 0.55ZM267.23-0.7L267.23-0.7Q268.98-0.7 270.13-1.83 271.28-2.95 271.28-5.5L271.28-5.5Q271.28-7.55 269.58-8.6L269.58-8.6Q268.28-9.4 266.25-10.18 264.23-10.95 263.15-11.5 262.08-12.05 260.78-12.95L260.78-12.95Q258.23-14.75 258.23-17.85 258.23-20.95 260.8-22.95 263.38-24.95 268.33-24.95L268.33-24.95Q271.43-24.95 273.58-23.63 275.73-22.3 275.73-20.3 275.73-18.3 274.03-17.4L274.03-17.4Q273.23-17 272.43-17L272.43-17 270.63-17.55Q270.93-19.1 270.93-20.38 270.93-21.65 270.13-22.68 269.33-23.7 267.73-23.7L267.73-23.7Q263.83-23.7 263.83-19L263.83-19Q263.83-16.85 265.48-15.8L265.48-15.8Q266.73-14.95 268.68-14.28 270.63-13.6 271.75-13.1 272.88-12.6 274.18-11.7L274.18-11.7Q276.78-10 276.78-6.68 276.78-3.35 274.03-1.4 271.28 0.55 266.78 0.55L266.78 0.55Q261.78 0.55 259.38-1.1L259.38-1.1Q257.98-2.1 257.98-3.55 257.98-5 258.95-5.9 259.93-6.8 261.68-6.85L261.68-6.85Q262.03-0.7 267.23-0.7Z" opacity="1" transform="matrix(1,0,0,1,0,0)" fill="#786efd" class="undefined-text-0" data-fill-palette-color="primary" id="text-0"></path></svg></g></svg></g></svg></g></svg></g><g transform="matrix(1,0,0,1,156.14468743802487,0)"><svg viewBox="0 0 85.20822512395017 69.20730646321526" height="69.20730646321526" width="85.20822512395017"><g><svg xmlns="http://www.w3.org/2000/svg" xmlns:xlink="http://www.w3.org/1999/xlink" version="1.1" x="8" y="0" viewBox="12.514 12.226999999999999 75.33600000000001 75.335" enable-background="new 0 0 100 100" xml:space="preserve" height="69.20730646321526" width="69.20822512395017" class="icon-icon-0" data-fill-palette-color="accent" id="icon-0"><g fill="#786efd" data-fill-palette-color="accent"><path d="M49.924 86.173c-20.133 0-36.513-16.38-36.513-36.513s16.379-36.513 36.513-36.513 36.513 16.38 36.513 36.513S70.058 86.173 49.924 86.173zM49.924 15.146c-19.03 0-34.513 15.482-34.513 34.513s15.482 34.513 34.513 34.513c19.031 0 34.513-15.482 34.513-34.513S68.955 15.146 49.924 15.146z" fill="#786efd" data-fill-palette-color="accent"></path></g><rect x="67.603" y="43.714" transform="matrix(0.7071 0.7071 -0.7071 0.7071 68.3248 -28.1176)" width="1" height="49.405" fill="#786efd" data-fill-palette-color="accent"></rect><path d="M73.798 56.042l11.909-11.909L85 43.426 73.036 55.39C73.193 55.352 73.558 55.918 73.798 56.042z" fill="#786efd" data-fill-palette-color="accent"></path><path d="M68.013 60.413c0.323 0.153 0.56 0.403 0.715 0.699l2.213-2.213c-0.162-0.43-0.862-0.232-0.738-0.676L68.013 60.413z" fill="#786efd" data-fill-palette-color="accent"></path><path d="M65.185 63.241l-21.82 21.82 0.707 0.707 21.863-21.863C65.608 63.759 65.362 63.522 65.185 63.241z" fill="#786efd" data-fill-palette-color="accent"></path><path d="M74.25 47.062c0.197 0.223 0.351 0.435 0.484 0.656l9.873-9.873-0.707-0.707-9.794 9.794C74.154 46.976 74.206 47.013 74.25 47.062z" fill="#786efd" data-fill-palette-color="accent"></path><path d="M70.071 52.347l1.808-1.774c-0.122-0.066-0.247-0.127-0.361-0.206-0.168-0.117-0.312-0.257-0.441-0.406l-1.829 1.795C69.535 51.935 69.802 52.143 70.071 52.347z" fill="#786efd" data-fill-palette-color="accent"></path><path d="M66.493 54.545l-2.177 2.177c0.216 0.139 0.395 0.332 0.508 0.582 0.037 0.082 0.059 0.157 0.089 0.236l2.324-2.324C67.077 55.094 66.557 54.654 66.493 54.545z" fill="#786efd" data-fill-palette-color="accent"></path><path d="M62.138 60.112c-0.155-0.142-0.306-0.273-0.438-0.438-0.052-0.065-0.086-0.137-0.131-0.206l-23.801 23.8 0.707 0.707 23.781-23.781C62.218 60.166 62.173 60.145 62.138 60.112z" fill="#786efd" data-fill-palette-color="accent"></path><path d="M70.812 43.75c0.086 0.086 0.159 0.18 0.226 0.278l10.721-10.721L81.052 32.6 70.373 43.279C70.52 43.435 70.66 43.598 70.812 43.75z" fill="#786efd" data-fill-palette-color="accent"></path><path d="M66.347 48.719l1.993-1.993c-0.098-0.066-0.192-0.14-0.278-0.226-0.152-0.152-0.292-0.315-0.44-0.471l-2.005 2.005C65.958 48.163 66.156 48.448 66.347 48.719z" fill="#786efd" data-fill-palette-color="accent"></path><path d="M61.172 53.893l2.243-2.243c-0.268-0.225-0.457-0.521-0.563-0.851l-2.322 2.322C60.83 53.307 61.045 53.579 61.172 53.893z" fill="#786efd" data-fill-palette-color="accent"></path><path d="M57.832 55.819L32.8 80.852l0.707 0.707 25.038-25.038C58.222 56.367 57.986 56.116 57.832 55.819z" fill="#786efd" data-fill-palette-color="accent"></path><path d="M67.207 40.472l11.645-11.645-0.707-0.707L66.578 39.686C66.866 39.884 67.075 40.159 67.207 40.472z" fill="#786efd" data-fill-palette-color="accent"></path><path d="M63.894 42.37l-2.115 2.115c0.423 0.025 0.564 0.367 0.833 0.581l2.009-2.009C64.304 42.899 64.06 42.659 63.894 42.37z" fill="#786efd" data-fill-palette-color="accent"></path><path d="M57.05 49.575c0.129 0.163 0.56 0.719 0.188 0.25 0.095 0.119 0.17 0.247 0.239 0.377l2.423-2.423c-0.21-0.316-0.66-0.356-0.673-0.741l-2.372 2.372C56.919 49.465 56.995 49.505 57.05 49.575z" fill="#786efd" data-fill-palette-color="accent"></path><path d="M54.538 52.447c-0.163-0.076-0.307-0.173-0.432-0.289L28.45 77.814l0.707 0.707 25.762-25.762C54.774 52.672 54.644 52.57 54.538 52.447z" fill="#786efd" data-fill-palette-color="accent"></path><path d="M63 37.062c0.074 0 0.139 0.013 0.208 0.021l12.181-12.181-0.707-0.707L43.484 55.392c-0.309 0.768-0.614 1.544-0.91 2.324L61.32 38.971C61.247 38.046 61.803 37.062 63 37.062z" fill="#786efd" data-fill-palette-color="accent"></path><path d="M35.633 63.244L24.459 74.417l0.707 0.707L36.21 64.081C35.92 63.771 35.743 63.522 35.633 63.244z" fill="#786efd" data-fill-palette-color="accent"></path><path d="M48.037 44.866l23.42-23.42L70.75 20.74 49.023 42.466C48.718 43.296 48.375 44.108 48.037 44.866z" fill="#786efd" data-fill-palette-color="accent"></path><path d="M34.746 56.744l-13.71 13.71 0.707 0.707L34.94 57.964C34.89 57.559 34.821 57.152 34.746 56.744z" fill="#786efd" data-fill-palette-color="accent"></path><path d="M49.534 35.982L66.9 18.616l-0.707-0.707L49.065 35.037C49.242 35.328 49.396 35.645 49.534 35.982z" fill="#786efd" data-fill-palette-color="accent"></path><path d="M32.287 51.815L17.979 66.123l0.707 0.707 14.038-14.038C32.579 52.465 32.433 52.14 32.287 51.815z" fill="#786efd" data-fill-palette-color="accent"></path><path d="M45.82 32.309l15.985-15.985-0.707-0.707L44.77 31.945C45.13 32.052 45.484 32.169 45.82 32.309z" fill="#786efd" data-fill-palette-color="accent"></path><path d="M29.909 46.806L15.607 61.108l0.707 0.707 14.065-14.065C30.222 47.436 30.069 47.119 29.909 46.806z" fill="#786efd" data-fill-palette-color="accent"></path><path d="M39.062 31.75l16.899-16.97-0.707-0.707L37.533 31.75C38.008 31.738 38.586 31.747 39.062 31.75z" fill="#786efd" data-fill-palette-color="accent"></path><path d="M27.219 42.108L14.312 55.015l0.707 0.707 12.748-12.748C27.59 42.683 27.403 42.396 27.219 42.108z" fill="#786efd" data-fill-palette-color="accent"></path><path d="M31.344 32.057l17.65-17.696-0.707-0.707L29.883 32.057C30.392 31.743 30.578 32.033 31.344 32.057z" fill="#786efd" data-fill-palette-color="accent"></path><path d="M24.91 37.031L13.962 47.979l0.707 0.707 10.25-10.25C24.773 37.936 24.784 37.471 24.91 37.031z" fill="#786efd" data-fill-palette-color="accent"></path><rect x="27.063" y="11.345" transform="matrix(0.7071 0.7071 -0.7071 0.7071 27.6579 -11.3776)" width="1" height="32.705" fill="#786efd" data-fill-palette-color="accent"></rect><rect x="71.65" y="54.655" transform="matrix(0.7071 0.7071 -0.7071 0.7071 71.8728 -30.0007)" width="1" height="34.206" fill="#786efd" data-fill-palette-color="accent"></rect><g fill="#786efd" data-fill-palette-color="accent"><path d="M16.16 27.81l-3.646-3.646 11.937-11.937 3.646 3.646L16.16 27.81zM15.342 24.164l0.818 0.818 9.109-9.109-0.818-0.818L15.342 24.164z" fill="#786efd" data-fill-palette-color="accent"></path></g><rect x="24.53" y="18.861" transform="matrix(0.7071 0.7072 -0.7072 0.7071 21.909 -13.1653)" width="4.63" height="2" fill="#786efd" data-fill-palette-color="accent"></rect><rect x="17.9" y="25.454" transform="matrix(0.7071 0.7071 -0.7071 0.7071 24.6005 -6.4821)" width="4.45" height="2" fill="#786efd" data-fill-palette-color="accent"></rect><g fill="#786efd" data-fill-palette-color="accent"><path d="M75.912 87.562l-3.646-3.646 11.938-11.938 3.646 3.646L75.912 87.562zM75.094 83.916l0.818 0.818 9.109-9.109-0.818-0.818L75.094 83.916z" fill="#786efd" data-fill-palette-color="accent"></path></g><rect x="71.203" y="78.927" transform="matrix(0.7071 0.7071 -0.7071 0.7071 78.05 -28.575)" width="4.631" height="2" fill="#786efd" data-fill-palette-color="accent"></rect><rect x="78.013" y="72.334" transform="matrix(0.7071 0.7071 -0.7071 0.7071 75.3562 -35.258)" width="4.45" height="2" fill="#786efd" data-fill-palette-color="accent"></rect><g fill="#786efd" data-fill-palette-color="accent"><path d="M37.39 65.762c-1.47 0-3.041-0.932-3.234-3.013-0.862-9.279-4.127-14.37-6.75-18.459-1.737-2.708-3.236-5.046-3.346-7.774-0.073-1.833 2.218-4.203 4.458-4.61 1.55-0.282 3.909-0.425 7.009-0.425 5.23 0 10.887 0.411 10.943 0.415 0.002 0 0.004 0 0.006 0 1.022 0 2.115 0.513 3.024 1.442 0.937 0.959 1.529 2.201 1.506 3.166-0.109 4.904-3.156 11.415-6.102 17.711-1.514 3.236-2.944 6.292-3.822 8.843C40.527 64.675 39.042 65.762 37.39 65.762zM35.527 32.98c-3.011 0-5.279 0.135-6.741 0.4-1.715 0.312-3.265 2.146-3.228 3.075 0.093 2.32 1.424 4.396 3.109 7.023 2.568 4.004 6.085 9.487 6.98 19.131 0.143 1.532 1.369 1.651 1.741 1.651 0.843 0 1.874-0.523 2.276-1.693 0.904-2.626 2.35-5.717 3.881-8.99 2.746-5.869 5.858-12.521 5.961-17.109 0.011-0.464-0.364-1.351-1.08-2.083-0.363-0.371-1.106-0.993-2.013-0.993C46.305 33.387 40.702 32.98 35.527 32.98z" fill="#786efd" data-fill-palette-color="accent"></path></g><g fill="#786efd" data-fill-palette-color="accent"><path d="M37.637 62.88c-0.603 0-1.299-0.616-1.448-2.348-0.762-8.859-4.193-14.175-6.699-18.057-1.344-2.083-2.406-3.727-2.673-5.309-0.221-1.307 1.107-2.752 2.842-3.093 1.227-0.241 3.129-0.364 5.652-0.364 4.243 0 8.851 0.35 8.897 0.354C46.724 34.235 48 35.478 48 37.757c0 4.053-2.609 9.59-5.132 14.945-1.419 3.013-2.76 5.859-3.505 8.196C38.968 62.14 38.322 62.88 37.637 62.88zM35.31 34.209c-2.491 0-4.36 0.119-5.555 0.354-1.455 0.286-2.62 1.487-2.445 2.52 0.25 1.48 1.287 3.087 2.6 5.121 2.534 3.925 6.005 9.302 6.777 18.285 0.112 1.307 0.558 1.891 0.95 1.891 0.336 0 0.866-0.428 1.25-1.634 0.755-2.368 2.103-5.229 3.529-8.257 2.499-5.306 5.083-10.792 5.084-14.732 0-1.997-1.088-3.042-3.33-3.195C44.123 34.558 39.532 34.209 35.31 34.209z" fill="#786efd" data-fill-palette-color="accent"></path></g><g fill="#786efd" data-fill-palette-color="accent"><path d="M33.719 40.625c-1.154 0-2.094-0.939-2.094-2.094s0.939-2.094 2.094-2.094 2.094 0.939 2.094 2.094S34.873 40.625 33.719 40.625zM33.719 36.938c-0.879 0-1.594 0.715-1.594 1.594s0.715 1.594 1.594 1.594 1.594-0.715 1.594-1.594S34.598 36.938 33.719 36.938z" fill="#786efd" data-fill-palette-color="accent"></path></g><g fill="#786efd" data-fill-palette-color="accent"><path d="M74.621 53.06c-0.406 0-0.756-0.135-1.011-0.39L61.219 40.279c-0.652-0.653-0.456-1.911 0.437-2.805 0.864-0.865 2.17-1.072 2.805-0.437l12.392 12.391c0.652 0.652 0.457 1.91-0.437 2.805C75.896 52.751 75.227 53.06 74.621 53.06zM63.449 37.147c-0.476 0-1.015 0.254-1.44 0.68-0.687 0.687-0.886 1.647-0.437 2.098l12.392 12.391c0.201 0.201 0.469 0.243 0.657 0.243 0.476 0 1.014-0.254 1.44-0.68 0.687-0.688 0.887-1.648 0.437-2.098L64.106 37.391C63.905 37.189 63.638 37.147 63.449 37.147z" fill="#786efd" data-fill-palette-color="accent"></path></g><g fill="#786efd" data-fill-palette-color="accent"><path d="M72.736 60.532c-0.406 0-0.757-0.136-1.012-0.391L59.334 47.75c-0.329-0.328-0.456-0.81-0.359-1.355 0.092-0.513 0.374-1.028 0.796-1.449 0.864-0.865 2.17-1.073 2.805-0.437L74.966 56.9c0.329 0.329 0.456 0.811 0.359 1.356-0.092 0.513-0.374 1.027-0.796 1.448C74.013 60.223 73.342 60.532 72.736 60.532zM61.563 44.619c-0.476 0-1.014 0.254-1.439 0.68-0.35 0.35-0.583 0.77-0.657 1.183-0.067 0.38 0.011 0.705 0.221 0.915l12.391 12.391c0.201 0.201 0.47 0.244 0.658 0.244 0.476 0 1.014-0.255 1.439-0.681 0.35-0.35 0.583-0.77 0.657-1.183 0.067-0.38-0.011-0.705-0.221-0.915L62.222 44.863C62.021 44.662 61.753 44.619 61.563 44.619z" fill="#786efd" data-fill-palette-color="accent"></path></g><g fill="#786efd" data-fill-palette-color="accent"><path d="M66.689 64.575c-0.406 0-0.756-0.136-1.011-0.391L53.287 51.794c-0.652-0.652-0.457-1.911 0.437-2.805 0.865-0.866 2.17-1.073 2.805-0.437L68.92 60.943c0.652 0.653 0.456 1.912-0.437 2.805C67.966 64.266 67.295 64.575 66.689 64.575zM55.517 48.662c-0.476 0-1.014 0.254-1.439 0.68-0.687 0.687-0.887 1.648-0.437 2.098l12.392 12.391c0.201 0.201 0.469 0.244 0.657 0.244 0.476 0 1.015-0.255 1.44-0.681 0.687-0.687 0.887-1.647 0.437-2.098L56.175 48.906C55.974 48.705 55.706 48.662 55.517 48.662z" fill="#786efd" data-fill-palette-color="accent"></path></g><path d="M59.087 55.914c-0.137 0-0.248-0.109-0.25-0.246l-0.031-2.238c-0.002-0.139 0.108-0.252 0.246-0.254 0.002 0 0.003 0 0.004 0 0.137 0 0.248 0.109 0.25 0.246l0.031 2.238c0.002 0.139-0.108 0.252-0.246 0.254C59.089 55.914 59.088 55.914 59.087 55.914z" fill="#786efd" data-fill-palette-color="accent"></path><path d="M61.088 57.817c-0.001 0-0.002 0-0.003 0-0.139-0.002-0.249-0.115-0.247-0.253l0.031-2.397c0.002-0.138 0.113-0.247 0.25-0.247 0.001 0 0.002 0 0.003 0 0.139 0.002 0.249 0.115 0.247 0.253l-0.031 2.397C61.336 57.708 61.225 57.817 61.088 57.817z" fill="#786efd" data-fill-palette-color="accent"></path><path d="M62.781 59.329c-0.003 0-0.006 0-0.009 0-0.139-0.005-0.246-0.121-0.241-0.259l0.062-1.711c0.005-0.138 0.121-0.228 0.259-0.241 0.139 0.005 0.246 0.121 0.241 0.259l-0.062 1.711C63.026 59.223 62.915 59.329 62.781 59.329z" fill="#786efd" data-fill-palette-color="accent"></path><path d="M64.765 51.321c-0.137 0-0.248-0.109-0.25-0.246l-0.031-2.239c-0.002-0.138 0.108-0.251 0.246-0.253 0.002 0 0.003 0 0.004 0 0.137 0 0.248 0.11 0.25 0.247l0.031 2.238c0.002 0.139-0.108 0.252-0.246 0.254C64.767 51.321 64.766 51.321 64.765 51.321z" fill="#786efd" data-fill-palette-color="accent"></path><path d="M66.766 53.225c-0.001 0-0.002 0-0.003 0-0.139-0.002-0.249-0.115-0.247-0.253l0.031-2.398c0.002-0.137 0.113-0.247 0.25-0.247 0.001 0 0.002 0 0.003 0 0.139 0.002 0.249 0.115 0.247 0.253l-0.031 2.397C67.014 53.115 66.902 53.225 66.766 53.225z" fill="#786efd" data-fill-palette-color="accent"></path><path d="M68.459 54.736c-0.003 0-0.006 0-0.009 0-0.139-0.005-0.246-0.121-0.241-0.259l0.062-1.711c0.005-0.138 0.117-0.237 0.259-0.241 0.139 0.005 0.246 0.121 0.241 0.259l-0.062 1.711C68.704 54.63 68.593 54.736 68.459 54.736z" fill="#786efd" data-fill-palette-color="accent"></path><path d="M66.628 44.031c-0.137 0-0.248-0.11-0.25-0.247l-0.031-2.238c-0.002-0.138 0.108-0.251 0.246-0.253 0.002 0 0.003 0 0.004 0 0.137 0 0.248 0.11 0.25 0.247l0.031 2.238c0.002 0.138-0.108 0.251-0.246 0.253C66.63 44.031 66.629 44.031 66.628 44.031z" fill="#786efd" data-fill-palette-color="accent"></path><path d="M68.628 45.935c-0.001 0-0.002 0-0.003 0-0.139-0.002-0.249-0.115-0.247-0.253l0.031-2.398c0.002-0.137 0.113-0.247 0.25-0.247 0.001 0 0.002 0 0.003 0 0.139 0.002 0.249 0.115 0.247 0.253l-0.031 2.398C68.876 45.825 68.765 45.935 68.628 45.935z" fill="#786efd" data-fill-palette-color="accent"></path><path d="M70.321 47.446c-0.003 0-0.006 0-0.009 0-0.139-0.005-0.246-0.121-0.241-0.259l0.062-1.71c0.005-0.137 0.123-0.239 0.259-0.241 0.139 0.005 0.246 0.121 0.241 0.259l-0.062 1.71C70.566 47.34 70.455 47.446 70.321 47.446z" fill="#786efd" data-fill-palette-color="accent"></path></svg></g></svg></g><g><rect width="79.6115674380249" height="4.516053776261232" y="63.69125268695403" x="241.35291256197505" fill="#786efd" data-fill-palette-color="secondary"></rect><rect width="79.6115674380249" height="4.516053776261232" y="63.69125268695403" x="76.53311999999997" fill="#786efd" data-fill-palette-color="secondary"></rect></g></svg></g><defs></defs></svg><rect width="395.52" height="146.7117080843192" fill="none" stroke="none" visibility="hidden"></rect></g></svg></g></svg>